<?xml version="1.0" encoding="utf-8"?>
<!-- Generator: Adobe Illustrator 16.0.0, SVG Export Plug-In . SVG Version: 6.00 Build 0)  -->
<!DOCTYPE svg PUBLIC "-//W3C//DTD SVG 1.1//EN" "http://www.w3.org/Graphics/SVG/1.1/DTD/svg11.dtd">
<svg version="1.1" id="Elements" xmlns="http://www.w3.org/2000/svg" xmlns:xlink="http://www.w3.org/1999/xlink" x="0px" y="0px"
	 width="812px" height="175.334px" viewBox="0 0 812 175.334" enable-background="new 0 0 812 175.334" xml:space="preserve">
<g id="Wordmark">
	<path fill="#3D3D3E" d="M362.404,84.972h-32.813c-8.936,0-16.203-7.228-16.203-16.112c0-8.889,7.268-16.115,16.203-16.115h48.02
		V41.518h-48.02c-15.16,0-27.494,12.266-27.494,27.342s12.334,27.34,27.494,27.34h32.813c8.936,0,16.207,7.229,16.207,16.113
		c0,8.889-7.271,16.118-16.207,16.118h-58.887v11.224h58.887c15.16,0,27.494-12.266,27.494-27.342S377.564,84.972,362.404,84.972z"
		/>
	<path fill="#3D3D3E" d="M768.551,51.719c19.74,0,31.061,13.314,31.061,36.527v50.748H810.9V88.246
		c0-30.02-15.438-47.233-42.35-47.233c-26.916,0-42.352,17.214-42.352,47.233v50.748h11.289V88.246
		C737.488,65.033,748.809,51.719,768.551,51.719z"/>
	<path fill="#3D3D3E" d="M452.889,140.553c21.018,0.549,33.434-4.557,35.58-5.52v-9.793c-3.033,1.114-14.129,4.733-30.367,4.733
		h-0.006c-1.734,0-3.5-0.04-5.252-0.122c-20.705-0.967-36.297-15.747-37.084-35.139l-0.025-0.627h86.035
		c0.096-0.711,0.096-1.709,0.096-2.908V89.42c-0.746-27.592-21.805-48.407-48.99-48.407c-0.34-0.007-0.662-0.011-0.984-0.011
		c-12.477,0-24.373,5.098-33.492,14.348c-9.412,9.55-14.703,22.533-14.512,35.622C403.887,118.08,425.408,139.852,452.889,140.553z
		 M428.461,61.046c6.988-6.19,15.27-9.327,24.611-9.327c9.283,0,17.434,3.139,24.227,9.331c6.83,6.229,10.916,13.749,12.488,22.993
		l0.119,0.706h-74.262l0.125-0.706C417.373,74.818,421.641,67.084,428.461,61.046z"/>
	<path fill="#3D3D3E" d="M663.059,140.553c21.012,0.549,33.436-4.557,35.584-5.52v-9.793c-3.039,1.114-14.137,4.733-30.373,4.733
		h-0.004c-1.736,0-3.5-0.04-5.248-0.122c-20.707-0.967-36.303-15.747-37.088-35.139l-0.025-0.627h86.039
		c0.092-0.711,0.092-1.709,0.092-2.908V89.42c-0.742-27.592-21.805-48.407-48.99-48.407c-0.338-0.007-0.662-0.011-0.984-0.011
		c-12.479,0-24.371,5.098-33.49,14.348c-9.414,9.55-14.703,22.533-14.514,35.622C614.057,118.08,635.58,139.852,663.059,140.553z
		 M638.629,61.046c6.988-6.19,15.271-9.327,24.611-9.327c9.283,0,17.438,3.139,24.229,9.331c6.83,6.229,10.914,13.749,12.49,22.993
		l0.119,0.706h-74.264l0.125-0.706C627.541,74.818,631.813,67.084,638.629,61.046z"/>
	<path fill="#3D3D3E" d="M559.109,139.004c5.998-0.178,11.389-3.804,13.725-9.232l37.916-87.18h-13.113l-35.738,83.174
		c-0.627,1.454-1.834,2.346-3.227,2.391c-1.191,0-2.271-0.764-2.996-2.094l-35.881-83.471h-12.658l37.816,87.945
		C547.697,135.896,553.184,139.174,559.109,139.004z"/>
</g>
<g id="Icon">
	<linearGradient id="SVGID_1_" gradientUnits="userSpaceOnUse" x1="32.7075" y1="19.4639" x2="115.0611" y2="67.1097">
		<stop  offset="0" style="stop-color:#01D468"/>
		<stop  offset="0.0954" style="stop-color:#15D875"/>
		<stop  offset="0.4067" style="stop-color:#50E59B"/>
		<stop  offset="0.6721" style="stop-color:#7BEFB7"/>
		<stop  offset="0.8783" style="stop-color:#96F5C9"/>
		<stop  offset="1" style="stop-color:#A0F7CF"/>
	</linearGradient>
	<path fill="url(#SVGID_1_)" d="M101.448,56.999l-6.778,9.203L10.061,23.168c-7.63-2.865-9.664-8.63-9.022-13.093
		c0.876-5.552,5.766-9.395,11.866-9.395H29.82l2.037,5.521l-2.037,6.189H14.49L101.448,56.999z"/>
	<linearGradient id="SVGID_2_" gradientUnits="userSpaceOnUse" x1="110.1274" y1="44.6675" x2="248.264" y2="-35.1124">
		<stop  offset="0" style="stop-color:#01D468"/>
		<stop  offset="0.2562" style="stop-color:#22DE7B"/>
		<stop  offset="0.7595" style="stop-color:#5EF29D"/>
		<stop  offset="1" style="stop-color:#75F9AB"/>
	</linearGradient>
	<path fill="url(#SVGID_2_)" d="M251.479,9.469c-1.092-3.283-4.508-8.788-15.24-8.788H29.82v11.71h37.156
		c1.72,0,3.385,0.033,4.991,0.111c3.879,0.156,7.429,0.496,10.666,0.968c0.045,0.011,0.089,0.011,0.137,0.021
		c18.072,2.092,32.424,7.172,34.695,15.319c0,0.023,0.009,0.034,0.021,0.046c0.416,1.1,0.473,2.293,0.191,3.619
		c-0.012,0.044-0.012,0.089-0.021,0.146c-0.664,2.99-2.979,6.654-6.486,11.441L27.863,154.354c-3.146,3.865-3.819,8.979-1.73,13.374
		c2.104,4.315,6.609,7.091,11.489,7.091c2.37,0,4.718-0.642,6.832-1.875c0.203-0.091,0.405-0.204,0.585-0.35l0.864-0.584
		c0.17-0.112,0.338-0.237,0.474-0.382L245.376,23.967C253.323,18.561,252.301,12.043,251.479,9.469z M238.554,14.289L38.521,162.727
		c-0.653,0.461-1.641,0.461-1.854,0.034c-0.101-0.191,0.044-0.597,0.415-1.046l82.631-109.56c3.731-4.935,7.6-10.037,9.564-15.454
		c3.014-8.316,0.979-15.904-5.733-21.365c-1.269-1.035-2.64-2.024-4.146-2.945h117.067c2.212,0,3.257,0.313,3.706,0.518
		C239.937,13.211,239.466,13.671,238.554,14.289z"/>
</g>
</svg>
